Simulation
nRows=39
nColumns=15
endheader
time  TH_x TH_y TH_z SC_y  SC_z  SC_x  AC_y  AC_z  AC_x  GH_y  GH_z  GH_yy  EL_x  PS_y
0.595  0.000000  0.000000  0.000000  -34.56830120591674  2.921526792107729  2.7060209417047463  53.62170281427071  7.66644656655309  -6.460733177513525  -3.2996679204384356  35.62202011892327  6.875945296280983  24.34618368453492  0.000000
0.6069  0.000000  0.000000  0.000000  -34.67039965826392  2.930758364452791  2.7973210395267207  53.7083645834374  7.85889511374319  -6.447706481070768  -2.9460223090453135  36.401774526911325  6.26823292239866  24.19916726874794  0.000000
0.6187999999999999  0.000000  0.000000  0.000000  -34.76929873405085  2.9375081593597097  2.885904850183155  53.796257228248706  8.057150210547988  -6.433536615205739  -2.5856144492945266  37.15952516189037  5.680493627997859  24.045253858204536  0.000000
0.6306999999999999  0.000000  0.000000  0.000000  -34.86508172276988  2.941405456332655  2.9712001758553024  53.88546954117659  8.260943363397537  -6.418121644975307  -2.220745069760665  37.89422623311237  5.114563978540378  23.88531787064526  0.000000
0.6426  0.000000  0.000000  0.000000  -34.95695483875054  2.9420691163151163  3.0528248099013346  53.97596924470794  8.470076176544032  -6.401600291269129  -1.852826762108686  38.60442481164351  4.571407509727676  23.72006742285299  0.000000
0.6545  0.000000  0.000000  0.000000  -35.04534212268794  2.9390499139299417  3.1304284698233413  54.068007051291566  8.684289329699594  -6.383987012149977  -1.483953255103141  39.289347971022096  4.0524985080998475  23.550572514762393  0.000000
0.6664  0.000000  0.000000  0.000000  -35.129713982781844  2.9319771075202956  3.2035369107148606  54.16195193192056  8.903550805919366  -6.365460841509732  -1.1153352540043548  39.94785374133725  3.5582063675998374  23.377418490819135  0.000000
0.6782999999999999  0.000000  0.000000  0.000000  -35.211113834170575  2.919818409513591  3.270490485293045  54.2582057644113  9.128931089584428  -6.344934903807119  -0.7489722393715408  40.579675325252055  3.0891424414647646  23.201463653355713  0.000000
0.6901999999999999  0.000000  0.000000  0.000000  -35.29005694159507  2.9010607158722928  3.331967174436409  54.35583142350254  9.360614724513956  -6.321340893258862  -0.3862236234154018  41.18423110924995  2.6465643605166465  23.024294799469704  0.000000
0.7021  0.000000  0.000000  0.000000  -35.36623945900628  2.87651862836751  3.389218281517736  54.4553605537661  9.59746787814596  -6.2953759575157635  -0.028941143592168365  41.76117264766597  2.230933067235666  22.846826977250675  0.000000
0.714  0.000000  0.000000  0.000000  -35.43733075582687  2.8485322317000437  3.442057469744712  54.55694651840715  9.839359897594619  -6.267790921290858  0.3221939887555088  42.31004883665806  1.8418304808285304  22.669578180203256  0.000000
0.7259  0.000000  0.000000  0.000000  -35.50276706502478  2.8190400977758308  3.4901905992752456  54.65994801821862  10.08647329375476  -6.237979936606552  0.6655724872346449  42.831614815246915  1.4796104016061895  22.493881478857762  0.000000
0.7377999999999999  0.000000  0.000000  0.000000  -35.561872531362  2.789353518722587  3.534031172028521  54.76342632099288  10.338870377574962  -6.205121841656902  1.0001620267957516  43.32665327288953  1.1441890493319196  22.32077834806509  0.000000
0.7496999999999999  0.000000  0.000000  0.000000  -35.61534531526144  2.7607117848407645  3.5740560066133162  54.867496393451724  10.59636464568328  -6.168756480854799  1.3240558684004722  43.796643334981844  0.8352246600396714  22.151181303398317  0.000000
0.7615999999999999  0.000000  0.000000  0.000000  -35.66340592509304  2.734099330556114  3.6111337300164728  54.97172941492071  10.858723781819569  -6.128187121044327  1.636040520929028  44.24287959989364  0.5524922328531225  21.985954203842788  0.000000
0.7735  0.000000  0.000000  0.000000  -35.7074867732031  2.7105011107712786  3.646072777009292  55.07652031963303  11.125570702117034  -6.083021920585079  1.934148030940958  44.66719506677246  0.2952465362432065  21.825960285946845  0.000000
0.7854  0.000000  0.000000  0.000000  -35.748350597520215  2.690747551619306  3.6799383331525823  55.181550202310234  11.396551824297912  -6.032514180302882  2.2171009135060205  45.07120597622841  0.06316558420937074  21.67194649668199  0.000000
0.7972999999999999  0.000000  0.000000  0.000000  -35.787824527064785  2.6758157688744046  3.7136751351072146  55.28740345221323  11.671220750112623  -5.976349615560368  2.4828145148063974  45.45695139992613  -0.14481091873833618  21.524638310349186  0.000000
0.8091999999999999  0.000000  0.000000  0.000000  -35.82702659561702  2.66665800470613  3.748483526799893  55.39360621352801  11.949093615906264  -5.913466657778388  2.7298195638204388  45.82628318320345  -0.3288124615849462  21.384697560082778  0.000000
0.8210999999999999  0.000000  0.000000  0.000000  -35.86809072911284  2.6644608313233347  3.7848817501185543  55.50063934878874  12.230172730388759  -5.843166593761852  2.9559325246727792  46.18135392153529  -0.49016196549122065  21.25282529691144  0.000000
0.833  0.000000  0.000000  0.000000  -35.91243154720939  2.670157840623965  3.823533991064066  55.607931160461355  12.514584608937522  -5.764024577388993  3.1596828761426354  46.52439901042498  -0.6289323695913633  21.129401427033105  0.000000
0.8449  0.000000  0.000000  0.000000  -35.96259737218829  2.6851074463771387  3.8655789715377216  55.71618289631324  12.802048944838509  -5.675776982550979  3.3390681464765204  46.857752879544265  -0.7471920027995995  21.014853467120943  0.000000
0.8567999999999999  0.000000  0.000000  0.000000  -36.02046836358446  2.7106841947777394  3.912280180414903  55.824476719270855  13.092101553036333  -5.576658914187558  3.492399653844305  47.18399678948531  -0.8442495975623932  20.909477833103075  0.000000
0.8686999999999999  0.000000  0.000000  0.000000  -36.08886241735707  2.7482773043608524  3.964959767850884  55.93382484322459  13.384603280884036  -5.466707973562255  3.6170710465313065  47.50559215952959  -0.9225551759672324  20.81325537124477  0.000000
0.8805999999999999  0.000000  0.000000  0.000000  -36.16983777692517  2.7996021916766614  4.025423476702357  56.04247817534491  13.678667551773755  -5.3432633198363435  3.710469946801668  47.8253626939186  -0.979693310630666  20.72654209201692  0.000000
0.8925  0.000000  0.000000  0.000000  -36.26681327496178  2.866640433148017  4.095034785493035  56.152769858546236  13.974297239785773  -5.207289995646176  3.7702543424266346  48.14576680072168  -1.019707354974305  20.647973471857682  0.000000
0.9044  0.000000  0.000000  0.000000  -36.3820353777406  2.951875051220667  4.176961554724185  56.26041940002505  14.269375905987983  -5.053687409655656  3.7933106172545124  48.469608405916546  -1.0380531379287934  20.578985918628824  0.000000
0.9162999999999999  0.000000  0.000000  0.000000  -36.519350309478966  3.0579695098537263  4.272296895289837  56.37053457135083  14.564579605890533  -4.886277515834185  3.778125496387705  48.79922528188564  -1.0407749969786526  20.515854683068916  0.000000
0.9281999999999999  0.000000  0.000000  0.000000  -36.6810045829956  3.1876144376990885  4.3853353323294275  56.4753660999615  14.856544919269183  -4.696063290207069  3.7210089935519863  49.13750032097441  -1.0217366788834394  20.46139223078723  0.000000
0.9400999999999999  0.000000  0.000000  0.000000  -36.8716270318742  3.343709551584587  4.518329126709804  56.58283615791252  15.14616934143074  -4.490595482212523  3.6219171056921113  49.48614714994497  -0.9876223938996601  20.409628138040116  0.000000
0.952  0.000000  0.000000  0.000000  -37.09276853261936  3.529638787886964  4.6781375003579155  56.68436209325705  15.426655634679015  -4.259446932421923  3.476995183531513  49.848115126440284  -0.9340684183090444  20.36242316090215  0.000000
0.9639  0.000000  0.000000  0.000000  -37.348525030944224  3.750208611249962  4.868177028286169  56.78476991003412  15.698874838354184  -4.0081388023227245  3.2872980213821217  50.222599223472564  -0.8622733924576622  20.314769196105722  0.000000
0.9757999999999999  0.000000  0.000000  0.000000  -37.64001356833079  4.00850223531346  5.09570709223683  56.88565897029894  15.9535564238509  -3.733458664591635  3.049873146822302  50.61370544832857  -0.778125077114375  20.258767395890853  0.000000
0.9876999999999999  0.000000  0.000000  0.000000  -37.9621926768361  4.3136101409832275  5.3739871191822735  56.9721828585213  16.18284136746844  -3.4260034044629575  2.7594024924266862  51.01426256147866  -0.6632311512745356  20.196588522500928  0.000000
0.9995999999999999  0.000000  0.000000  0.000000  -38.28488839952767  4.672780330814504  5.706105479018783  57.039578506750814  16.395053614644443  -3.132388080698887  2.4328449259876175  51.410217521730274  -0.5434566362004558  20.10881672844042  0.000000
1.0114999999999998  0.000000  0.000000  0.000000  -38.513820679731104  5.103870296869718  6.1220408009726786  56.928326555728525  16.61256533944536  -2.8902768593734076  2.131717470527224  51.731932905093316  -0.3820416782226232  20.073545964169593  0.000000
1.0233999999999999  0.000000  0.000000  0.000000  -38.558852849558534  5.669373233676529  6.524150460812469  56.61336212189304  16.927139305466987  -2.8883849405570015  2.0086221499209427  51.89073163474825  -0.2485033187425717  20.110338151439578  0.000000
1.0352999999999999  0.000000  0.000000  0.000000  -38.448738005000145  6.368251188129793  6.775980424248669  56.314672787665614  17.365032467800386  -3.3054213360768294  2.174219852002577  51.900456204035095  -0.31764302063432054  20.121265005341645  0.000000
1.0472  0.000000  0.000000  0.000000  -38.255994598130954  7.052393202846959  6.9485981323254835  56.03287066545529  17.83244233239917  -3.915036364634338  2.5281858335969547  51.813021788486196  -0.4888907972316691  20.146042511026323  0.000000
